# xmcd CD database file
#
# Track frame offsets:
#	150
#	17825
#	40565
#	58240
#
# Disc length: 1076 seconds
#
# Revision: 0
# Processed by: cddbd v1.5.1PL0 Copyright (c) Steve Scherf et al.
# Submitted via: CDex 1.51
#
DISCID=2b043204
DTITLE=佐藤裕美 - 時代の夢双花
DYEAR=2005
DGENRE=アニメ
TTITLE0=時代の無双花
TTITLE1=三日月に帆を立てて
TTITLE2=時代の無双花 (off vocal)
TTITLE3=三日月に帆を立てて (off vocal)
EXTD=YEAR: 2005
EXTT0=
EXTT1=
EXTT2=
EXTT3=
PLAYORDER=
